<svg version="1.1" id="Layer_1" xmlns="http://www.w3.org/2000/svg" xmlns:xlink="http://www.w3.org/1999/xlink" x="0px" y="0px"
	 width="100%" viewBox="0 0 1573 568" enable-background="new 0 0 1573 568" xml:space="preserve">
<path fill="#FEFFFF" opacity="1.000000" stroke="none" 
	d="
M1178.000000,569.000000 
	C786.878845,569.000000 396.257721,568.990417 5.636612,569.124390 
	C1.341553,569.125854 0.902742,567.956787 0.904971,564.137634 
	C1.013584,377.992706 1.018207,191.847717 0.882678,5.702843 
	C0.879654,1.549098 1.839974,0.895455 5.796158,0.896285 
	C526.902039,1.005557 1048.007935,1.008185 1569.113892,0.866644 
	C1573.650757,0.865412 1574.089600,2.183040 1574.087524,6.112827 
	C1573.987061,192.257767 1573.985352,378.402740 1574.101440,564.547668 
	C1574.103882,568.407837 1573.120117,569.092651 1569.453247,569.089600 
	C1439.135620,568.982605 1308.817749,569.000000 1178.000000,569.000000 
z"/>
<path fill="#2AA7FA" opacity="1.000000" stroke="none" 
	d="
M1220.906860,379.147339 
	C1213.421143,379.146942 1206.419800,379.023712 1199.426147,379.203674 
	C1196.439331,379.280487 1195.360962,378.133270 1194.973145,375.275238 
	C1193.809814,366.702301 1192.423950,358.158966 1191.062988,349.613953 
	C1190.815796,348.061615 1191.506104,345.769989 1189.566162,345.228149 
	C1187.281128,344.589935 1186.742432,347.159149 1185.714233,348.499817 
	C1174.212524,363.497284 1159.762573,374.709900 1141.427979,379.396545 
	C1105.145020,388.671204 1070.535034,385.769897 1040.399536,361.098816 
	C1022.889526,346.763763 1012.859985,327.338867 1007.500916,305.736481 
	C997.464722,265.281158 997.397766,224.787506 1011.112671,185.132294 
	C1021.420471,155.328003 1040.420166,132.647614 1071.462280,123.011436 
	C1102.746460,113.300079 1133.595337,114.365013 1162.621094,131.433151 
	C1171.610840,136.719467 1179.077759,143.849670 1185.518433,152.057053 
	C1186.592651,153.425842 1187.575928,155.741013 1189.725830,154.810440 
	C1191.979370,153.834930 1190.451416,151.613937 1190.349609,149.943359 
	C1189.671753,138.810791 1188.426758,127.685623 1188.331665,116.549820 
	C1188.054932,84.060364 1188.309814,51.566631 1188.133911,19.075779 
	C1188.110962,14.835488 1189.411377,13.745162 1193.476929,13.864260 
	C1202.966431,14.142236 1212.475830,14.154416 1221.964233,13.859812 
	C1226.093384,13.731613 1227.307251,14.901656 1227.277466,19.106945 
	C1227.088623,45.765541 1227.181641,72.426140 1227.181641,99.086075 
	C1227.181641,190.396362 1227.149170,281.706696 1227.277100,373.016815 
	C1227.283569,377.589661 1226.473511,380.077667 1220.906860,379.147339 
z"/>
<path fill="#2AA7FA" opacity="1.000000" stroke="none" 
	d="
M823.234863,117.249924 
	C848.673584,116.768204 872.548767,120.897903 893.847900,134.798996 
	C917.652222,150.335083 932.723816,172.463089 940.168884,199.585220 
	C950.239502,236.271988 950.445374,273.181030 937.862732,309.245667 
	C922.510742,353.248169 890.972046,377.912262 844.481750,383.050629 
	C821.774597,385.560394 799.481628,384.040192 778.452148,374.373718 
	C749.342346,360.992981 729.579956,338.471100 719.403381,308.516846 
	C705.607849,267.910553 705.945801,226.608276 721.301941,186.623672 
	C737.678406,143.982498 770.391846,121.677689 815.792908,117.849617 
	C818.115662,117.653763 820.438049,117.453651 823.234863,117.249924 
z"/>
<path fill="#2AA7FA" opacity="1.000000" stroke="none" 
	d="
M1483.558105,363.573242 
	C1457.618164,381.701416 1428.703003,385.919006 1398.427002,383.398163 
	C1344.306274,378.891937 1306.586304,336.714844 1298.105713,285.270142 
	C1292.324219,250.198044 1293.487915,215.324020 1307.939209,182.251724 
	C1325.005615,143.194565 1355.884888,122.420464 1397.951538,118.049408 
	C1421.877319,115.563339 1445.334351,117.805229 1467.248413,128.385590 
	C1499.665894,144.037109 1517.945923,171.020660 1526.789429,205.088058 
	C1529.640137,216.069809 1531.291626,227.233246 1530.938354,238.676010 
	C1530.384766,256.613190 1532.143799,274.624176 1527.934204,292.411133 
	C1521.156128,321.052063 1508.116089,345.656860 1483.558105,363.573242 
z"/>
<path fill="#2AA7FA" opacity="1.000000" stroke="none" 
	d="
M455.057159,55.996132 
	C455.057709,50.163593 455.194733,44.825474 455.004333,39.499058 
	C454.900482,36.594414 456.001038,35.544662 458.770111,35.871372 
	C459.591949,35.968338 460.434998,35.885345 461.268311,35.885345 
	C542.933594,35.885303 624.598816,35.878040 706.264099,35.897499 
	C713.739502,35.899281 712.746582,35.069584 712.794250,42.659603 
	C712.843445,50.492493 712.553284,58.337231 712.904175,66.154678 
	C713.099243,70.499550 711.495300,71.364586 707.494263,71.346886 
	C674.828857,71.202415 642.161682,71.372726 609.497131,71.147873 
	C604.738220,71.115112 603.813049,72.596863 603.818420,77.025162 
	C603.938538,175.689972 603.864746,274.355072 604.039062,373.019714 
	C604.048218,378.203766 602.645752,379.475433 597.670288,379.262817 
	C588.187744,378.857666 578.668945,378.937408 569.178833,379.240662 
	C564.992859,379.374451 563.897339,378.096619 563.907227,373.947662 
	C564.041626,317.782257 563.997498,261.616486 563.997437,205.450790 
	C563.997375,162.618195 563.918396,119.785255 564.109070,76.953514 
	C564.130188,72.225372 562.682678,71.150047 558.206604,71.173698 
	C525.708069,71.345444 493.207550,71.165817 460.709473,71.377289 
	C456.004700,71.407898 454.489380,70.011284 454.994690,65.487877 
	C455.325653,62.525036 455.057129,59.495235 455.057159,55.996132 
z"/>
<path fill="#2DA8FA" opacity="1.000000" stroke="none" 
	d="
M173.163513,55.188576 
	C197.757126,52.393036 222.015930,50.350533 245.401840,43.073898 
	C260.394043,38.409004 273.875458,31.128445 285.774353,20.789131 
	C299.853027,8.555729 316.628967,12.784099 323.458221,30.214909 
	C337.487793,66.023537 351.285156,101.923515 365.418365,137.690948 
	C369.515167,148.058853 367.637634,156.734833 360.309296,164.824753 
	C343.797089,183.052902 322.902649,193.305161 299.353577,198.891891 
	C275.721039,204.498398 251.574371,205.436203 227.482819,206.920135 
	C204.048004,208.363602 180.594345,209.648651 157.968079,216.847839 
	C141.244766,222.168839 126.786606,230.913910 115.194016,244.241592 
	C112.818436,246.972733 112.044342,249.234344 113.549324,253.043533 
	C128.781906,291.597931 143.728928,330.265137 158.742828,368.905823 
	C159.582748,371.067535 160.787766,373.204041 160.527084,375.597870 
	C160.042099,380.051758 157.639359,383.110931 153.124237,383.837433 
	C148.308655,384.612213 145.156555,382.189758 143.435074,377.789764 
	C137.914398,363.679382 132.405853,349.564240 126.911163,335.443695 
	C95.692802,255.217285 64.483757,174.987228 33.252682,94.765762 
	C31.795183,91.021965 30.783167,87.305466 30.759243,83.174187 
	C30.734476,78.897156 31.900787,75.906075 36.275330,75.065811 
	C40.669987,74.221695 44.337700,75.666801 46.174110,79.921097 
	C48.679741,85.725731 50.859505,91.671555 53.152206,97.567268 
	C53.982327,99.701935 54.726048,101.348320 57.130569,98.775414 
	C79.056412,75.314064 107.480042,65.300415 138.093811,60.067898 
	C149.573563,58.105774 161.169571,56.823841 173.163513,55.188576 
z"/>
<path fill="#32AAFA" opacity="1.000000" stroke="none" 
	d="
M667.677856,497.015076 
	C673.360962,490.742371 679.650452,488.778137 686.200562,491.104492 
	C691.960693,493.150269 694.937317,498.157043 695.046021,506.405640 
	C695.151306,514.398865 694.947205,522.397888 695.152405,530.387329 
	C695.237427,533.699951 693.726013,534.135559 690.945801,534.202637 
	C687.906311,534.275818 687.328918,532.910706 687.361511,530.289062 
	C687.458740,522.462402 687.483643,514.631897 687.349976,506.806000 
	C687.230469,499.808014 684.574463,496.697266 679.064026,496.641418 
	C673.162048,496.581604 669.902222,500.180847 669.811279,507.149719 
	C669.711243,514.809937 669.670410,522.474792 669.835144,530.132629 
	C669.899841,533.138367 668.974487,534.215088 665.878906,534.213135 
	C662.821289,534.211182 661.838989,533.227539 661.900269,530.177795 
	C662.064148,522.020325 661.996033,513.856201 661.895752,505.696259 
	C661.850708,502.035156 660.904297,498.504333 657.066223,497.152100 
	C653.179688,495.782745 649.573547,496.775452 646.468323,499.671509 
	C644.684265,501.335358 644.369934,503.276215 644.387085,505.531586 
	C644.447876,513.525696 644.295349,521.523071 644.463867,529.514038 
	C644.533508,532.818115 643.705933,534.224670 640.040710,534.244019 
	C635.958252,534.265564 636.474915,531.829346 636.476440,529.335266 
	C636.483093,518.509277 636.382141,507.681580 636.567749,496.858765 
	C636.601440,494.895508 634.885193,491.897461 638.363464,491.007629 
	C641.961792,490.087006 643.583618,492.175873 643.937317,495.505493 
	C646.025330,495.280731 646.807983,493.595520 648.129639,492.704010 
	C654.232483,488.587524 660.863220,489.563324 665.304016,495.335327 
	C665.881042,496.085358 666.096741,497.241272 667.677856,497.015076 
z"/>
<path fill="#35ABFA" opacity="1.000000" stroke="none" 
	d="
M992.941284,549.841553 
	C987.761292,549.859497 983.172302,549.145569 979.067444,546.672363 
	C972.643982,542.802246 972.056885,535.778687 977.861633,531.114319 
	C979.571289,529.740601 980.368896,529.113281 978.660095,526.993591 
	C976.157227,523.888733 977.232056,520.717957 979.788696,518.045410 
	C981.038696,516.738770 982.009094,515.778992 980.229675,514.002441 
	C975.585999,509.366241 974.610291,503.798767 977.510010,497.987122 
	C980.445068,492.104614 986.026489,490.168182 992.133545,490.255554 
	C998.891907,490.352203 1005.317810,493.652863 1012.267700,492.659332 
	C1013.461365,492.488678 1013.934265,493.435486 1013.923706,494.617432 
	C1013.911926,495.945374 1013.385010,497.145905 1012.089172,497.188110 
	C1007.520813,497.336914 1008.305603,499.960968 1008.664612,503.144897 
	C1009.483887,510.410522 1003.765564,516.888245 996.052856,517.836243 
	C993.921936,518.098206 991.723328,518.083923 989.580444,517.903320 
	C987.011169,517.686890 984.549988,517.905945 984.321838,520.926208 
	C984.104309,523.807007 986.847595,524.081848 988.918945,524.448792 
	C991.034180,524.823669 993.215942,524.809998 995.363708,525.017334 
	C998.174744,525.288818 1000.997253,525.504395 1003.785278,525.935364 
	C1007.775513,526.552063 1011.323425,528.223145 1012.561951,532.333069 
	C1013.864014,536.653503 1012.419128,540.601318 1009.277832,543.755920 
	C1004.924561,548.127747 999.407898,549.690308 992.941284,549.841553 
z"/>
<path fill="#32AAFA" opacity="1.000000" stroke="none" 
	d="
M328.522705,504.384003 
	C332.314362,494.912903 336.034180,485.826019 339.524445,476.651825 
	C340.571167,473.900360 342.039398,472.840729 345.031219,472.912445 
	C347.956207,472.982574 349.870667,473.389282 351.103363,476.556763 
	C357.919342,494.070984 365.022766,511.473267 371.870667,528.975342 
	C372.443359,530.439087 375.154938,532.828857 372.260132,533.809875 
	C369.812378,534.639465 366.107788,535.453064 364.489227,531.606079 
	C363.005798,528.080261 361.520844,524.541077 360.326782,520.912292 
	C359.511688,518.435425 358.126801,517.553345 355.569672,517.600769 
	C348.746338,517.727539 341.916962,517.742249 335.094513,517.593506 
	C332.497894,517.536987 331.122498,518.517883 330.320618,520.913635 
	C329.265717,524.065369 327.999908,527.147339 326.794037,530.247314 
	C326.253204,531.637695 325.805725,533.241943 324.221283,533.735107 
	C322.140381,534.382751 319.571136,534.865234 317.940369,533.672668 
	C316.133667,532.351379 318.198730,530.404419 318.792603,528.862427 
	C321.901917,520.788818 325.157867,512.771545 328.522705,504.384003 
z"/>
<path fill="#35ABFA" opacity="1.000000" stroke="none" 
	d="
M427.944214,493.955139 
	C429.273102,496.927887 430.088074,494.400391 430.817688,493.923004 
	C443.529236,485.605652 455.146790,491.003601 456.122131,506.043335 
	C456.659454,514.328857 456.261322,522.672363 456.401917,530.987732 
	C456.454926,534.121704 454.607697,534.319885 452.200439,534.425354 
	C449.448669,534.545898 448.320221,533.647583 448.371918,530.750427 
	C448.511414,522.932739 448.428436,515.110657 448.401611,507.290497 
	C448.386688,502.944519 447.737152,498.820221 442.981567,497.061829 
	C438.658936,495.463562 431.827606,497.782318 428.928772,501.395477 
	C427.723236,502.898041 427.945953,504.503235 427.939911,506.124451 
	C427.909546,514.277405 427.833313,522.432129 427.975830,530.582703 
	C428.024048,533.341309 427.200256,534.475952 424.327301,534.437134 
	C421.599274,534.400208 420.030609,533.995667 420.053864,530.644958 
	C420.182953,512.010254 420.168121,493.373901 420.062439,474.738922 
	C420.045349,471.725952 421.349060,471.203003 423.968384,471.132324 
	C426.967285,471.051422 428.096893,471.968018 427.988617,475.096191 
	C427.775757,481.245148 427.930237,487.406799 427.944214,493.955139 
z"/>
<path fill="#32AAFA" opacity="1.000000" stroke="none" 
	d="
M737.378662,530.438354 
	C727.810913,536.702515 716.345886,536.170410 709.519958,529.385803 
	C702.218628,522.128662 701.184387,507.312897 707.352112,498.331024 
	C712.546021,490.767365 723.479797,488.048157 732.887512,491.980286 
	C744.663208,496.902222 748.719482,515.176392 740.589294,526.835876 
	C739.742065,528.050903 738.642822,529.090210 737.378662,530.438354 
z"/>
<path fill="#35ABFA" opacity="1.000000" stroke="none" 
	d="
M917.311157,490.519226 
	C930.836914,493.566681 937.343872,505.957123 933.271240,520.229736 
	C929.937317,531.913635 918.234192,537.775757 906.290588,533.744324 
	C896.317017,530.377930 890.923096,519.117554 893.455750,506.950348 
	C895.919434,495.114563 903.956238,489.449463 917.311157,490.519226 
z"/>
<path fill="#36ACFA" opacity="1.000000" stroke="none" 
	d="
M790.127686,527.830566 
	C784.607056,519.841370 783.717285,511.523926 786.778137,502.825623 
	C789.843506,494.114563 798.434021,489.104492 807.738892,490.306427 
	C816.718018,491.466339 822.086731,497.388458 823.305603,507.096649 
	C823.801208,511.044373 822.960938,513.023254 818.433533,512.843933 
	C811.290344,512.561035 804.121460,512.949219 796.975830,512.699341 
	C793.028809,512.561218 792.578796,514.100708 793.402100,517.440979 
	C795.786377,527.114380 803.467773,531.122253 812.912964,527.381470 
	C814.452209,526.771790 815.898438,525.922363 817.374329,525.158142 
	C819.537598,524.037964 820.828064,525.207703 821.904846,526.880188 
	C823.140320,528.799316 821.481628,529.582214 820.363892,530.443604 
	C813.798645,535.502502 798.751648,538.086792 790.127686,527.830566 
z"/>
<path fill="#36ACFA" opacity="1.000000" stroke="none" 
	d="
M1048.239258,526.452515 
	C1049.819580,525.786621 1051.021118,525.069519 1052.284912,524.934448 
	C1053.785522,524.773926 1054.608032,526.078796 1055.250000,527.258850 
	C1056.036499,528.704712 1054.797363,529.398621 1053.938354,530.089111 
	C1045.258911,537.066040 1025.497559,538.210083 1019.895752,521.595642 
	C1018.038086,516.085815 1017.692444,510.497040 1019.177673,504.862244 
	C1021.708008,495.261902 1030.365845,489.290985 1040.267700,490.235901 
	C1049.589478,491.125458 1055.696655,497.660278 1056.611938,507.474731 
	C1056.964600,511.256073 1055.888062,512.994751 1051.726562,512.841248 
	C1044.570312,512.577332 1037.390503,512.955078 1030.233887,512.695679 
	C1026.382080,512.556030 1025.846069,513.856323 1026.599487,517.333191 
	C1028.822266,527.589417 1036.531250,531.065735 1048.239258,526.452515 
z"/>
<path fill="#36ACFA" opacity="1.000000" stroke="none" 
	d="
M506.017731,512.769409 
	C503.356201,512.769470 501.168701,512.963135 499.027985,512.729065 
	C494.750122,512.261230 493.423035,513.513550 494.666168,517.985046 
	C497.139496,526.881409 504.003479,530.703430 513.205505,527.699463 
	C514.772156,527.187988 516.295227,526.430115 517.700012,525.562073 
	C519.800293,524.264343 521.413879,524.526672 522.826050,526.555542 
	C524.542725,529.021790 522.335205,529.916870 520.950989,530.770264 
	C513.007996,535.667664 504.565308,536.800842 496.323364,532.063416 
	C487.349945,526.905518 485.541443,518.030334 486.516876,508.619232 
	C487.685669,497.342224 495.284973,490.448914 505.927734,490.189606 
	C516.648376,489.928375 524.723389,497.966644 524.657837,508.673462 
	C524.639771,511.631378 523.551453,512.903198 520.509399,512.805359 
	C515.848389,512.655457 511.178864,512.768250 506.017731,512.769409 
z"/>
<path fill="#36ACFA" opacity="1.000000" stroke="none" 
	d="
M609.118469,501.031982 
	C612.234741,512.334412 611.919800,512.769409 601.020447,512.769653 
	C595.355225,512.769775 589.682373,512.948669 584.027588,512.705627 
	C580.418823,512.550476 579.940002,513.848145 580.597290,517.084167 
	C582.532959,526.614197 589.747864,530.834106 599.353271,527.659180 
	C601.235718,527.036987 602.969177,525.974304 604.796509,525.172241 
	C606.693420,524.339722 607.955017,525.258423 609.009949,526.773315 
	C610.335144,528.676270 608.711853,529.477173 607.639526,530.390747 
	C598.263123,538.378235 581.464172,535.806885 575.609497,525.235596 
	C571.526611,517.863403 571.055542,509.941528 574.229431,502.072388 
	C577.373108,494.278137 583.597107,490.503204 591.778198,490.252533 
	C599.600708,490.012878 605.670410,493.195557 609.118469,501.031982 
z"/>
<path fill="#36ACFA" opacity="1.000000" stroke="none" 
	d="
M1153.848633,490.190857 
	C1165.404053,491.805023 1171.277832,498.386841 1171.145630,508.757721 
	C1171.107178,511.777405 1170.068604,512.871582 1167.051147,512.814697 
	C1159.568359,512.673523 1152.077881,512.900635 1144.597290,512.710266 
	C1141.354370,512.627747 1140.550781,513.738770 1141.106812,516.802551 
	C1142.885376,526.603149 1151.061157,531.145752 1160.644287,527.457947 
	C1162.187988,526.863953 1163.637329,526.014404 1165.105469,525.236450 
	C1166.896606,524.287354 1168.239868,524.731995 1169.383911,526.356018 
	C1170.733643,528.271851 1169.620850,529.354553 1168.221924,530.493591 
	C1156.208618,540.274841 1137.621704,534.166931 1133.858887,519.186096 
	C1129.851807,503.233063 1138.075684,491.038879 1153.848633,490.190857 
z"/>
<path fill="#35ABFA" opacity="1.000000" stroke="none" 
	d="
M1204.620850,513.430420 
	C1210.230591,520.451355 1208.436890,529.119629 1200.679688,532.876038 
	C1193.718018,536.247192 1186.783081,535.575134 1180.108032,531.799133 
	C1178.372314,530.817200 1177.058716,529.693420 1178.484497,527.447876 
	C1179.714233,525.511353 1181.253662,525.109314 1183.116333,526.343079 
	C1186.597778,528.648926 1190.341553,529.733582 1194.500366,528.979919 
	C1197.753662,528.390320 1200.045288,526.647278 1200.528198,523.210632 
	C1201.010742,519.776123 1198.905518,517.967834 1196.043335,516.874146 
	C1192.625977,515.568298 1189.130371,514.466003 1185.721680,513.139282 
	C1181.298340,511.417725 1178.556641,508.227509 1178.353516,503.384521 
	C1178.154663,498.641907 1180.428101,495.075867 1184.403198,492.600098 
	C1190.050659,489.082672 1199.527954,489.478119 1204.839111,493.402222 
	C1206.034424,494.285400 1207.499512,494.994659 1206.336060,496.949493 
	C1205.344482,498.615692 1204.193237,499.382965 1202.239136,498.507172 
	C1198.893433,497.007843 1195.543823,495.378113 1191.694092,496.344635 
	C1188.800781,497.071106 1186.235596,498.318024 1185.908691,501.700195 
	C1185.589600,505.000488 1188.059448,506.381927 1190.560303,507.448090 
	C1195.137207,509.399384 1200.209961,510.156158 1204.620850,513.430420 
z"/>
<path fill="#36ACFA" opacity="1.000000" stroke="none" 
	d="
M1215.431763,504.509125 
	C1215.670654,497.271484 1218.432739,493.121857 1224.341553,491.252838 
	C1230.927246,489.169739 1237.174072,489.979553 1242.843262,494.137299 
	C1244.045166,495.018860 1243.918091,495.994720 1243.206299,497.160095 
	C1242.301025,498.641724 1241.173584,499.360962 1239.477051,498.600494 
	C1236.887451,497.439728 1234.299316,496.111816 1231.419556,496.107391 
	C1227.770630,496.101807 1224.086304,496.872345 1223.069458,500.968201 
	C1221.994751,505.297302 1225.560059,506.656921 1228.708008,507.895538 
	C1231.495117,508.992157 1234.398193,509.794800 1237.181641,510.899719 
	C1241.448120,512.593384 1244.692261,515.216309 1244.946045,520.287964 
	C1245.223022,525.824707 1243.039673,530.155273 1238.133057,532.655029 
	C1231.064453,536.256409 1223.973145,535.677185 1217.114868,531.810913 
	C1215.387329,530.837036 1214.040161,529.720154 1215.460571,527.465881 
	C1216.675415,525.538025 1218.193970,525.116760 1220.089722,526.321106 
	C1223.115234,528.243164 1226.291138,529.473816 1229.977539,529.155151 
	C1233.834106,528.821716 1236.857056,527.401733 1237.497559,523.224365 
	C1238.112305,519.214966 1235.223022,517.647522 1232.131348,516.479187 
	C1229.176147,515.362549 1226.141968,514.455688 1223.180664,513.353882 
	C1219.185669,511.867523 1216.350952,509.264679 1215.431763,504.509125 
z"/>
<path fill="#35ABFA" opacity="1.000000" stroke="none" 
	d="
M542.981567,529.072632 
	C538.443848,517.926880 533.948853,507.172913 529.700012,496.322601 
	C529.097351,494.783386 526.312378,492.294739 529.527649,491.168579 
	C532.169067,490.243439 535.447754,490.218658 536.909668,494.149048 
	C540.158447,502.883850 543.656799,511.525787 547.052002,520.206177 
	C547.473755,521.284607 547.886230,522.366577 548.639160,524.318298 
	C552.688843,514.157349 556.557922,504.721710 560.184509,495.193787 
	C561.355103,492.118469 562.963196,490.564972 566.420776,490.865112 
	C568.732849,491.065796 569.427856,491.779419 568.542725,493.941833 
	C563.309143,506.727448 558.075195,519.512939 552.876709,532.312866 
	C551.853149,534.833191 549.700867,534.241882 547.777832,534.364136 
	C544.249756,534.588501 544.193665,531.520447 542.981567,529.072632 
z"/>
<path fill="#35ABFA" opacity="1.000000" stroke="none" 
	d="
M869.062866,526.852295 
	C869.062866,518.718689 868.980591,511.064972 869.100830,503.414459 
	C869.153320,500.069855 869.372498,497.007050 864.662842,496.908966 
	C862.885986,496.871979 862.207458,495.402405 862.283020,493.695801 
	C862.370361,491.723511 863.883362,491.737091 865.176575,491.892975 
	C868.870483,492.338318 869.005371,490.145782 869.145142,487.330597 
	C869.658813,476.985474 876.010071,471.149261 885.413818,472.194336 
	C887.328552,472.407196 889.641052,472.339966 889.482422,475.358612 
	C889.346191,477.950104 887.541992,477.964935 885.607849,478.084167 
	C883.287842,478.227142 880.888794,478.463043 879.149231,480.272278 
	C876.297791,483.238098 876.072266,487.125183 877.125671,490.563293 
	C877.960388,493.287476 881.225281,491.393433 883.359436,491.824615 
	C884.319031,492.018524 885.351135,491.904999 886.346863,491.857971 
	C888.182068,491.771301 889.079346,492.477203 889.068848,494.445587 
	C889.058472,496.397064 888.613098,497.549438 886.328674,497.633362 
	C883.384155,497.741608 879.474670,496.242859 877.722351,498.346161 
	C875.564941,500.935669 877.013489,505.048859 876.951355,508.494080 
	C876.825317,515.478821 876.843506,522.468384 876.947388,529.453857 
	C876.990540,532.358582 877.043213,534.518311 872.950806,534.501160 
	C868.767639,534.483643 868.911560,532.133179 869.057800,529.329590 
	C869.092407,528.665894 869.062866,527.998962 869.062866,526.852295 
z"/>
<path fill="#35ABFA" opacity="1.000000" stroke="none" 
	d="
M389.588013,525.438599 
	C394.933044,529.885681 400.215820,529.642090 405.546326,526.323608 
	C407.436859,525.146729 409.107269,523.588013 411.059540,526.198181 
	C413.210724,529.074280 410.560486,530.070312 408.994934,531.221985 
	C398.593201,538.873657 383.736176,534.666992 379.084167,522.700073 
	C376.377655,515.737854 376.492950,508.622131 379.390167,501.755341 
	C384.131989,490.516541 399.508850,486.480316 409.326538,493.738190 
	C410.632019,494.703308 412.434021,495.482605 410.773010,497.600372 
	C409.705719,498.961121 408.753052,500.274750 406.690979,499.113525 
	C400.706055,495.743011 394.327454,494.479065 389.342133,500.087921 
	C383.836609,506.282043 384.685120,513.948303 386.997162,521.362671 
	C387.425659,522.736816 388.527039,523.901001 389.588013,525.438599 
z"/>
<path fill="#32AAFA" opacity="1.000000" stroke="none" 
	d="
M1061.970215,495.748871 
	C1061.553955,493.203339 1062.592041,492.092834 1064.628906,492.186371 
	C1068.105957,492.346069 1069.213135,490.583771 1069.327393,487.380859 
	C1069.421631,484.734924 1069.977051,482.102631 1070.374512,479.471313 
	C1070.687622,477.398163 1072.058105,476.875732 1073.983032,476.947540 
	C1076.258301,477.032379 1076.093140,478.594421 1076.127075,480.101837 
	C1076.138306,480.601135 1076.104614,481.102570 1076.137329,481.600037 
	C1076.343506,484.734314 1074.903076,488.519836 1076.770142,490.846130 
	C1078.794678,493.368652 1082.713135,491.593109 1085.787231,491.811340 
	C1087.834595,491.956635 1088.820679,492.506409 1088.755005,494.729370 
	C1088.689697,496.942505 1087.583008,497.499420 1085.606445,497.612396 
	C1082.656982,497.781006 1078.867432,496.245392 1076.959717,498.373077 
	C1074.781982,500.802002 1076.272705,504.755035 1076.173584,508.035767 
	C1076.027710,512.859497 1075.982056,517.699646 1076.210571,522.517700 
	C1076.459839,527.775574 1078.817993,529.432495 1083.763550,527.691345 
	C1086.058105,526.883423 1087.527344,526.783081 1088.597778,529.167969 
	C1089.906372,532.083374 1087.440674,532.607666 1085.788818,533.408264 
	C1076.585449,537.868225 1068.811768,533.286194 1068.495361,523.126038 
	C1068.293457,516.638550 1068.311279,510.136200 1068.494751,503.647980 
	C1068.598633,499.974823 1068.442139,496.969818 1063.561768,497.296051 
	C1063.088501,497.327698 1062.561646,496.557404 1061.970215,495.748871 
z"/>
<path fill="#36ACFA" opacity="1.000000" stroke="none" 
	d="
M1122.911133,505.000000 
	C1122.911133,513.661316 1122.803223,521.824829 1122.966797,529.982910 
	C1123.028198,533.038757 1122.379517,534.535400 1118.906982,534.476013 
	C1115.740601,534.421814 1115.012207,533.168152 1115.027710,530.262390 
	C1115.125000,511.941528 1115.122803,493.619659 1115.028564,475.298798 
	C1115.013672,472.425781 1115.651367,471.141968 1118.873535,471.094666 
	C1122.328003,471.044006 1123.030762,472.387054 1122.974487,475.520050 
	C1122.801270,485.177307 1122.911255,494.839630 1122.911133,505.000000 
z"/>
<path fill="#36ACFA" opacity="1.000000" stroke="none" 
	d="
M763.648315,502.989685 
	C761.346436,505.894104 761.778259,508.952393 761.772949,511.919830 
	C761.761902,518.065491 761.644043,524.214844 761.822510,530.355286 
	C761.909546,533.347534 760.954468,534.456421 757.873352,534.471008 
	C754.887939,534.485107 753.821716,533.642517 753.864624,530.528259 
	C754.024658,518.903503 753.879761,507.274811 753.976013,495.648651 
	C753.991272,493.809631 752.763672,491.078888 756.491699,490.898163 
	C759.766541,490.739410 761.065186,492.193756 760.947083,495.306213 
	C760.922363,495.957916 761.071716,496.616241 761.146118,497.320984 
	C763.232117,497.596375 763.411987,495.635895 764.318298,494.688904 
	C767.521729,491.342041 771.302673,489.700378 775.940491,490.227753 
	C778.814636,490.554535 780.440308,491.685730 779.890564,495.095581 
	C779.376953,498.281403 777.960083,498.676117 775.092773,498.084961 
	C770.481323,497.134277 766.553223,498.536987 763.648315,502.989685 
z"/>
<path fill="#32AAFA" opacity="1.000000" stroke="none" 
	d="
M943.424500,506.005798 
	C943.424683,502.184998 943.324341,498.858795 943.463074,495.542572 
	C943.542419,493.645844 942.414062,491.035980 946.117249,490.879303 
	C949.476074,490.737183 950.544678,492.402100 950.671570,495.323944 
	C950.699768,495.974609 950.860901,496.619537 950.977722,497.376892 
	C953.005859,497.132477 953.409058,495.252136 954.504150,494.206696 
	C957.716064,491.140228 961.406128,489.561615 965.819397,490.352875 
	C967.816956,490.710999 970.395020,490.873260 969.561584,494.259094 
	C968.940613,496.781982 968.736023,498.723358 964.882385,498.151794 
	C956.482666,496.906036 951.219788,501.877869 951.136963,510.364929 
	C951.072144,517.008362 950.983704,523.657043 951.182251,530.295105 
	C951.277405,533.475159 949.979675,534.190308 947.080566,534.205017 
	C944.208679,534.219543 943.337585,533.185303 943.381470,530.422424 
	C943.507996,522.451599 943.424927,514.477417 943.424500,506.005798 
z"/>
<path fill="#3AADFA" opacity="1.000000" stroke="none" 
	d="
M476.076355,510.000488 
	C476.075867,517.301514 475.947815,524.106140 476.133087,530.902222 
	C476.215576,533.928284 474.878143,534.501038 472.260529,534.463257 
	C469.739899,534.426819 468.207611,534.024109 468.236115,530.950439 
	C468.349945,518.676270 468.358490,506.399719 468.235992,494.125732 
	C468.203033,490.823120 470.091888,490.905273 472.413544,490.873383 
	C474.728333,490.841644 476.200134,491.219757 476.114166,494.074951 
	C475.959534,499.212524 476.074158,504.358246 476.076355,510.000488 
z"/>
<path fill="#3AADFA" opacity="1.000000" stroke="none" 
	d="
M835.355774,535.114502 
	C834.255981,534.091614 833.172852,533.577332 832.350647,532.790405 
	C830.582458,531.098083 830.354370,528.925171 831.308716,526.805054 
	C832.317261,524.564453 834.329773,523.753113 836.703674,524.144348 
	C839.107727,524.540527 840.457336,526.082825 840.928223,528.467468 
	C841.840698,533.087524 838.250061,541.906250 834.412476,544.587341 
	C833.486572,545.234192 832.722168,545.640747 831.836792,544.658386 
	C831.030823,543.763977 831.177429,542.855469 831.817627,541.945007 
	C833.246277,539.913086 835.039551,538.088623 835.355774,535.114502 
z"/>
<path fill="#3AADFA" opacity="1.000000" stroke="none" 
	d="
M477.458130,479.295288 
	C475.122009,482.992828 472.280365,484.113953 468.928406,481.537109 
	C466.727142,479.844879 466.281708,477.323425 467.595245,474.795105 
	C468.813873,472.449371 470.950653,471.466003 473.464264,472.146912 
	C476.848785,473.063751 478.336914,475.399719 477.458130,479.295288 
z"/>
<path fill="#FEFFFF" opacity="1.000000" stroke="none" 
	d="
M1056.289917,181.395813 
	C1071.385986,155.684280 1094.446777,147.739883 1122.395508,150.342026 
	C1129.530884,151.006348 1136.540405,152.320618 1143.362793,154.632629 
	C1165.185181,162.027939 1177.365112,178.173477 1182.486938,199.646774 
	C1190.469971,233.116806 1191.136719,267.029388 1183.750000,300.634033 
	C1176.848511,332.031616 1155.855835,348.890106 1123.668823,350.889801 
	C1112.679688,351.572571 1101.694214,351.751617 1090.962158,348.571777 
	C1070.086426,342.386414 1057.329224,327.859070 1049.858154,308.137970 
	C1041.803223,286.875977 1040.601318,264.653534 1041.417847,242.236694 
	C1042.038696,225.190674 1044.330811,208.414215 1050.920044,192.501816 
	C1052.444458,188.820389 1054.360840,185.301178 1056.289917,181.395813 
z"/>
<path fill="#FEFFFF" opacity="1.000000" stroke="none" 
	d="
M756.929199,297.884399 
	C748.106323,262.615997 747.485840,227.798431 760.001404,193.765854 
	C770.083252,166.350845 791.110474,152.737991 819.946594,150.848221 
	C832.836060,150.003510 845.615479,150.707092 857.913940,155.120300 
	C877.574036,162.175140 890.921265,176.029831 897.562866,195.412399 
	C910.284241,232.538528 910.591675,270.174133 896.948669,307.037262 
	C886.538025,335.166748 864.861511,349.445679 834.948303,351.073273 
	C816.023926,352.102936 798.008667,349.405975 782.452271,337.451874 
	C769.373291,327.401581 761.866150,313.693207 756.929199,297.884399 
z"/>
<path fill="#FEFFFF" opacity="1.000000" stroke="none" 
	d="
M1489.161133,219.890015 
	C1493.000122,249.882904 1493.293701,279.260040 1481.928833,307.434448 
	C1470.788696,335.051910 1449.760132,349.406372 1420.064697,351.074249 
	C1406.618530,351.829468 1393.419312,350.710236 1380.877686,345.333679 
	C1363.474243,337.873016 1351.618286,324.680542 1345.397705,307.286926 
	C1331.868774,269.458588 1331.610107,231.027252 1345.231934,193.274979 
	C1354.986694,166.239807 1376.068359,152.835083 1404.470459,150.879013 
	C1420.622314,149.766617 1436.463501,151.083633 1451.163696,158.727524 
	C1471.342773,169.220245 1481.283081,187.163422 1486.825684,208.210510 
	C1487.797974,211.902740 1488.350098,215.705597 1489.161133,219.890015 
z"/>
<path fill="#FEFFFF" opacity="1.000000" stroke="none" 
	d="
M120.126450,216.124008 
	C116.266167,219.323593 112.513130,222.131699 109.194687,225.383331 
	C106.478767,228.044556 105.447227,227.495682 104.232513,224.167007 
	C97.159203,204.783768 89.961502,185.445786 82.761948,166.108841 
	C77.246307,151.294678 71.783363,136.458725 66.027275,121.737915 
	C64.674866,118.279213 65.203056,116.058548 67.583412,113.313461 
	C82.729111,95.847122 102.465675,86.535080 124.306190,80.850304 
	C146.303192,75.124794 168.922302,73.562164 191.371567,70.857239 
	C217.501572,67.708809 243.571991,64.317879 267.847626,53.118637 
	C278.356842,48.270355 287.998383,42.131840 296.686157,34.490471 
	C301.930878,29.877476 304.769470,30.539665 307.317902,37.065033 
	C321.181976,72.564980 334.977722,108.091789 348.945007,143.551041 
	C350.513580,147.533234 349.897522,150.364090 347.066315,153.453094 
	C331.888458,170.012970 312.482483,178.425491 291.009857,182.932098 
	C272.862885,186.740692 254.409485,187.820175 235.966812,188.915604 
	C209.385132,190.494492 182.732040,191.468170 156.889771,198.883652 
	C143.832764,202.630371 131.537155,208.017380 120.126450,216.124008 
z"/>
<path fill="#F7FCFF" opacity="1.000000" stroke="none" 
	d="
M991.857056,531.056213 
	C995.436401,531.453552 998.648315,531.513245 1001.675232,532.291992 
	C1006.384460,533.503540 1007.205139,537.582092 1003.664734,540.944336 
	C999.540283,544.861267 987.344116,545.250488 982.928833,541.648315 
	C980.869629,539.968262 980.245972,537.799744 981.011841,535.404175 
	C981.824890,532.861023 983.720764,531.196655 986.431152,530.898499 
	C988.064697,530.718750 989.746582,530.978577 991.857056,531.056213 
z"/>
<path fill="#F7FCFF" opacity="1.000000" stroke="none" 
	d="
M986.794189,511.450256 
	C982.464539,506.774231 982.005920,501.913452 985.261353,498.404724 
	C988.101074,495.344055 995.034546,494.876495 998.652893,497.501617 
	C1001.897278,499.855438 1002.842285,504.921906 1000.745483,508.720947 
	C998.389893,512.988831 993.377319,514.076355 986.794189,511.450256 
z"/>
<path fill="#F4FBFF" opacity="1.000000" stroke="none" 
	d="
M353.317383,502.640625 
	C356.898102,511.675751 356.898102,511.675720 347.468109,511.675873 
	C344.141693,511.675934 340.806213,511.523865 337.491516,511.721039 
	C334.412628,511.904266 334.158020,510.667206 335.129669,508.207123 
	C338.479645,499.725586 341.757050,491.215332 345.364502,481.938263 
	C348.145538,489.195557 350.653351,495.739868 353.317383,502.640625 
z"/>
<path fill="#F8FCFF" opacity="1.000000" stroke="none" 
	d="
M719.318054,527.984680 
	C710.137573,522.761475 708.421692,505.751862 716.038452,499.069061 
	C722.183960,493.677124 732.584351,496.334717 735.389038,504.137817 
	C737.364502,509.633942 737.333130,515.278503 735.453369,520.797791 
	C733.163513,527.521301 727.691162,529.975403 719.318054,527.984680 
z"/>
<path fill="#F8FCFF" opacity="1.000000" stroke="none" 
	d="
M910.085815,496.840881 
	C920.157166,495.576569 925.390808,499.783569 926.047241,509.438477 
	C926.306152,513.246643 926.399536,517.066467 925.020874,520.760376 
	C923.021973,526.116028 919.346069,528.778564 913.709839,528.827637 
	C908.216614,528.875488 904.164612,526.113098 902.279480,520.899658 
	C899.081543,512.055542 901.439880,498.247131 910.085815,496.840881 
z"/>
<path fill="#F4FBFF" opacity="1.000000" stroke="none" 
	d="
M812.669617,507.880585 
	C807.055237,507.881866 801.892883,507.669647 796.757812,507.952576 
	C792.999329,508.159668 793.032654,506.569977 794.022217,503.848633 
	C795.882507,498.732971 800.385132,495.730072 806.019409,495.982422 
	C810.949158,496.203217 814.739197,499.158691 815.840515,503.697479 
	C816.400024,506.003418 816.635071,508.169891 812.669617,507.880585 
z"/>
<path fill="#F4FBFF" opacity="1.000000" stroke="none" 
	d="
M1044.780273,507.881836 
	C1039.655518,507.881683 1034.995361,507.711731 1030.353760,507.932892 
	C1026.416748,508.120453 1026.259521,506.293213 1027.358643,503.372192 
	C1029.154785,498.598755 1033.728638,495.667542 1039.173584,495.996033 
	C1043.930908,496.283081 1047.360718,498.517853 1048.879395,503.198578 
	C1049.940430,506.468384 1049.153564,508.405670 1044.780273,507.881836 
z"/>
<path fill="#F4FBFF" opacity="1.000000" stroke="none" 
	d="
M507.695221,496.001587 
	C512.795227,496.855438 516.026428,499.273895 517.066284,504.155548 
	C517.577332,506.554749 517.166870,507.980225 514.232056,507.913513 
	C508.738342,507.788574 503.237244,507.778748 497.744232,507.918365 
	C494.782257,507.993652 494.381287,506.656128 495.029999,504.218292 
	C496.367401,499.192810 500.570740,496.335266 507.695221,496.001587 
z"/>
<path fill="#F4FBFF" opacity="1.000000" stroke="none" 
	d="
M593.963440,507.882263 
	C590.481567,507.881927 587.479248,507.711823 584.504272,507.924255 
	C580.787292,508.189728 580.091370,506.595734 581.356079,503.497467 
	C583.313477,498.702271 586.889099,496.141754 592.074707,495.996857 
	C596.802185,495.864777 600.541016,497.638824 602.522522,502.134460 
	C604.451233,506.510345 603.585022,507.810089 598.940369,507.878265 
	C597.445557,507.900238 595.950256,507.882111 593.963440,507.882263 
z"/>
<path fill="#F4FBFF" opacity="1.000000" stroke="none" 
	d="
M1162.477661,500.776306 
	C1165.201050,507.532410 1164.987549,507.874725 1158.423950,507.881348 
	C1153.795166,507.886047 1149.157715,507.708282 1144.540161,507.936035 
	C1140.843994,508.118347 1140.843750,506.593262 1141.915161,503.818329 
	C1145.333740,494.963348 1155.684448,493.213562 1162.477661,500.776306 
z"/>
</svg>